<?xml version="1.0" encoding="UTF-8" standalone="no"?>
<!-- Created with Inkscape (http://www.inkscape.org/) -->

<svg
   width="160mm"
   height="160mm"
   viewBox="0 0 160 160"
   version="1.1"
   id="svg1"
   xml:space="preserve"
   xmlns="http://www.w3.org/2000/svg"
   xmlns:svg="http://www.w3.org/2000/svg"><defs
     id="defs1" /><g
     id="g1"><path
       style="fill:#cefe1b;fill-opacity:1"
       d="m 128.2297,123.23917 c -0.1733,-0.19558 -8.7276,2.36987 -8.7276,2.61742 0,0.0975 11.0268,22.2435 11.2872,22.6689 0.067,0.10914 0.4174,0.19843 0.7792,0.19843 0.5964,0 0.6441,-0.0802 0.5085,-0.85989 -0.2247,-1.29276 -3.0247,-19.8597 -3.3615,-22.29115 -0.1613,-1.16416 -0.38,-2.21432 -0.4858,-2.33371 z"
       id="path17" /><path
       style="fill:#cefe1b;fill-opacity:1"
       d="m 66.9792,116.44631 c -0.1501,0.0332 -0.6608,2.19274 -1.1405,4.82761 -1.0353,5.68575 -2.496,13.68108 -4.145,22.6875 -0.6527,3.56527 -1.3236,7.2562 -1.4908,8.20209 -0.1672,0.94588 -0.4517,2.41062 -0.6325,3.2551 l -0.3287,1.53582 0.9472,-0.0806 c 0.9472,-0.0802 0.9476,-0.0805 2.8712,-4.18114 1.058,-2.25557 2.6321,-5.58932 3.4979,-7.40833 3.4003,-7.14451 11.2555,-23.78347 12.0851,-25.59844 0.4823,-1.05503 0.7713,-1.91823 0.6423,-1.91823 -0.129,0 -1.9317,0.41672 -4.0059,0.92605 -5.1913,1.27469 -5.1856,1.27526 -6.75,-0.66043 -0.7053,-0.87258 -1.4012,-1.58657 -1.5467,-1.58698 0,-1e-5 0,-2.6e-4 0,0 z"
       id="path16" /><path
       style="fill:#cefe1b;fill-opacity:1"
       d="m 105.2601,108.77184 c -0.2388,0 -1.7374,0.5319 -7.6399,2.71198 l -4.5521,1.68155 2.3724,2.37247 2.3725,2.37246 -2.4862,11.10733 c -1.3676,6.10908 -2.569,11.49429 -2.6701,11.96723 -0.1746,0.81741 -0.1454,0.8599 0.5969,0.8599 0.7349,0 0.9221,-0.25376 3.1693,-4.29948 5.3551,-9.64111 12.2726,-22.2246 12.5382,-22.8074 0.251,-0.55093 0.068,-0.92601 -1.6112,-3.29385 -1.042,-1.46963 -1.9822,-2.67219 -2.0898,-2.67219 z"
       id="path15" /><path
       style="fill:#cefe1b;fill-opacity:1"
       d="m 52.8452,95.43622 c -0.083,0.0823 -0.2868,3.14639 -0.4537,6.80889 l -0.3029,6.65902 -0.9653,2.38125 c -0.5308,1.30969 -2.224,5.59594 -3.763,9.525 -3.7058,9.46118 -10.2664,26.12256 -10.9332,27.76627 -0.4109,1.01281 -0.4564,1.35566 -0.2011,1.51773 0.1812,0.11512 0.3468,0.21068 0.368,0.21291 0.021,0.002 2.1048,-2.39733 4.6302,-5.33249 2.5254,-2.93517 5.0054,-5.82243 5.5113,-6.41615 6.9355,-8.13963 13.7949,-16.16114 15.6337,-18.28312 1.8247,-2.10583 2.3359,-2.87908 2.484,-3.75533 l 0.1866,-1.10329 -2.5228,-1.25263 -2.5224,-1.25264 -3.4995,-8.81238 c -1.9248,-4.84688 -3.5674,-8.74537 -3.6499,-8.66304 z"
       id="path14" /><path
       style="fill:#cefe1b;fill-opacity:1"
       d="m 85.5342,89.85413 c 0.1527,-0.60891 -1.5442,2.50133 -4.9796,9.12813 -1.3202,2.54661 -2.7832,5.34458 -3.251,6.21771 -0.4678,0.87312 -1.959,3.73062 -3.314,6.35 -1.355,2.61937 -2.6224,4.99739 -2.8168,5.28443 -0.3947,0.5828 -0.4538,0.93564 -0.1551,0.92862 0.1091,-0.003 1.8381,-0.40205 3.8422,-0.8878 2.0042,-0.48576 3.6826,-0.93014 3.7295,-0.98753 0.1145,-0.13993 1.407,-4.92667 3.7077,-13.73043 0.3612,-1.38245 1.2074,-4.59713 1.8805,-7.14375 0.673,-2.54661 1.2836,-4.86834 1.3566,-5.15938 z"
       id="path13" /><path
       style="fill:#cefe1b;fill-opacity:1"
       d="m 119.668,89.72184 c -0.059,0 0.2802,1.04179 0.7539,2.3151 l 0.861,2.31511 3.9388,2.40812 c 2.166,1.32428 6.0809,3.72646 8.7002,5.33818 5.0808,3.12619 4.8948,3.01685 4.8948,2.87631 0,-0.0513 -0.7436,-0.6724 -1.6531,-1.38028 -0.9095,-0.70789 -5.1941,-4.11897 -9.5209,-7.5799 -4.3268,-3.46093 -7.9155,-6.29264 -7.9747,-6.29264 z"
       id="path12" /><path
       style="fill:#cefe1b;fill-opacity:1"
       d="m 116.4511,87.16437 c -0.2244,-0.0721 -9.3578,19.40055 -9.4723,20.19515 -0.024,0.16901 2.5754,4.00743 5.7769,8.52972 4.2298,5.97491 5.9294,8.18046 6.2178,8.06927 0.2183,-0.0842 1.5274,-0.50922 2.9099,-0.94464 1.3824,-0.43543 3.3275,-1.04186 4.3222,-1.34721 1.76,-0.54021 1.7939,-0.56647 1.2418,-0.98289 -0.4679,-0.35291 -0.8448,-1.67487 -2.1472,-7.53855 -1.651,-7.43265 -1.4773,-6.90178 -7.6094,-23.27197 -0.5412,-1.44467 -1.099,-2.66367 -1.2397,-2.70888 z"
       id="path11" /><path
       style="fill:#cefe1b;fill-opacity:1"
       d="m 86.1408,84.30615 c -0.205,0.12292 -3.1706,2.24707 -6.5903,4.72013 -3.4198,2.47307 -8.931,6.455 -12.2473,8.84907 -3.3162,2.39407 -5.9951,4.43509 -5.9531,4.53564 0.042,0.10056 1.856,3.28562 4.0308,7.0776 l 3.9542,6.89416 2.1508,-4.00389 c 1.1829,-2.20214 2.8872,-5.40147 3.7879,-7.10965 0.9006,-1.70818 1.9152,-3.61318 2.2546,-4.23333 0.3393,-0.62015 1.3686,-2.55633 2.2867,-4.30258 0.9182,-1.74625 1.9905,-3.77032 2.3828,-4.49792 2.8794,-5.34089 4.2615,-8.12026 3.9429,-7.92923 z"
       id="path10" /><path
       style="fill:#cefe1b;fill-opacity:1"
       d="m 89.661,81.63965 c -0.053,0.0535 -0.4935,1.62589 -0.9782,3.49436 -0.4846,1.86846 -1.2597,4.82596 -1.7224,6.57221 -0.4627,1.74625 -2.0192,7.62762 -3.4587,13.06948 -1.4395,5.44186 -2.6873,10.11506 -2.7729,10.3849 -0.086,0.26983 -0.068,0.49041 0.04,0.49041 0.1075,0 5.5626,-1.97521 12.1223,-4.3894 6.5596,-2.41421 12.0642,-4.52768 12.2318,-4.69635 0.1676,-0.16868 0.9528,-1.73571 1.7446,-3.48196 0.7919,-1.74625 2.8988,-6.35959 4.6824,-10.25209 l 3.2432,-7.0776 -1.3425,-1.54978 c -0.7385,-0.85242 -1.5042,-1.68353 -1.7017,-1.84743 -0.2414,-0.20035 -3.9034,-0.38268 -11.1751,-0.55604 -5.9486,-0.14181 -10.859,-0.21418 -10.9125,-0.16071 z"
       id="path9" /><path
       style="fill:#cefe1b;fill-opacity:1"
       d="m 127.9305,74.82559 c -0.1944,-0.29516 -12.1597,9.08194 -11.9734,9.38341 0.067,0.10778 6.2795,5.1132 13.8059,11.12283 7.5264,6.00962 15.4103,12.31408 17.5204,14.01 2.11,1.69592 3.8802,3.041 3.9336,2.98948 0.053,-0.0515 -0.711,-1.37912 -1.6986,-2.95072 -0.9875,-1.57159 -2.1734,-3.45302 -2.6355,-4.18062 -0.4621,-0.72761 -3.992,-6.38307 -7.844,-12.56771 -7.9324,-12.73598 -10.861,-17.4309 -11.1084,-17.80667 z"
       id="path8" /><path
       style="fill:#cefe1b;fill-opacity:1"
       d="m 125.0584,74.21478 c 0,-0.0725 -1.8752,1.1446 -4.1672,2.70422 -2.2919,1.55961 -4.703,3.19959 -5.3578,3.64474 -2.0029,1.36155 -2.152,1.52066 -1.8113,1.93115 0.1668,0.20104 0.3992,0.33165 0.5162,0.29042 0.1171,-0.0412 2.5994,-1.95652 5.5165,-4.25658 2.917,-2.30007 5.3036,-4.24148 5.3036,-4.31395 z"
       id="path7" /><path
       style="fill:#cefe1b;fill-opacity:1"
       d="m 34.035,69.08434 0.4201,0.99219 c 0.2311,0.54571 0.798,1.91384 1.2594,3.04012 0.8039,1.96276 0.8824,2.05762 1.898,2.28668 0.5827,0.13144 1.0889,0.25159 1.1245,0.26717 0.036,0.0156 -0.6767,-1.45986 -1.5828,-3.27887 -1.5172,-3.04599 -1.7055,-3.30729 -2.3834,-3.30729 z"
       id="path6" /><path
       style="fill:#cefe1b;fill-opacity:1"
       d="m 72.2993,63.59734 c -0.1098,-0.1098 -11.1687,4.03921 -11.7905,4.4235 -0.177,0.10937 -1.2609,3.51854 -2.4092,7.57628 -1.1482,4.05775 -2.7075,9.54177 -3.4649,12.18634 l -1.3771,4.80849 1.2082,2.59984 c 1.1033,2.37404 2.6888,6.06495 5.8327,13.58005 l 1.1622,2.77813 1.9673,0.98133 c 1.082,0.53968 2.0008,0.98616 2.0423,0.99219 9e-4,1.4e-4 0,1.5e-4 0,0 2e-4,-8e-5 0,-9.2e-4 0,-10e-4 l 5e-4,-5.1e-4 6e-4,-5.2e-4 5e-4,-5.2e-4 c 10e-5,-2.4e-4 9e-4,-10e-4 0,-0.002 0.016,-0.0354 -0.085,-0.28104 -0.2398,-0.58032 -0.1692,-0.32742 -1.5346,-2.85751 -3.0344,-5.6224 l -2.7265,-5.02708 6.4663,-19.29081 c 3.5565,-10.6099 6.4168,-19.3403 6.3557,-19.4014 z"
       id="path5" /><path
       style="fill:#cefe1b;fill-opacity:1"
       d="m 65.1075,22.04535 -4.0897,6.47144 c -2.2493,3.55949 -4.1317,6.59148 -4.1837,6.73757 -0.061,0.17268 0.5866,0.20218 1.8521,0.0842 1.6184,-0.15084 2.3764,-0.40391 4.4974,-1.50224 l 2.5512,-1.32136 0.3189,-3.08044 c 0.1753,-1.69423 0.4068,-3.76559 0.5142,-4.60333 0.191,-1.48991 0.1771,-1.53731 -0.6326,-2.15491 z"
       id="path4" /><path
       style="fill:#cefe1b;fill-opacity:1"
       d="m 77.0742,10.42849 c -0.037,-0.0373 -1.6011,3.11372 -3.4752,7.00267 -1.8741,3.88894 -4.5586,9.45215 -5.965,12.36256 l -2.557,5.29166 -3.2422,1.5875 -3.2422,1.5875 -2.8907,4.37803 -2.8908,4.37751 -0.9178,-0.10697 c -0.5048,-0.0589 -0.9178,-0.14875 -0.9178,-0.19947 0,-0.15827 3.7206,-6.00581 4.6184,-7.25847 2.1769,-3.03719 1.5686,-2.48187 -2.895,2.6417 -3.1788,3.64883 -4.02,4.47022 -4.4731,4.36976 -0.3069,-0.068 -4.9634,-0.66066 -10.3477,-1.31672 C 32.4938,44.4897 27.2209,43.83306 26.16,43.68641 c -1.061,-0.14666 -2.1326,-0.26064 -2.3813,-0.25322 -0.2487,0.007 4.6076,1.575 10.7922,3.48351 6.1846,1.90852 11.2905,3.50624 11.3465,3.55017 0.096,0.0756 -1.0328,1.84876 -6.7231,10.55543 -3.0763,4.70715 -3.8297,5.90111 -3.8297,6.0725 0,0.3345 0.9009,0.0937 1.218,-0.32556 0.1927,-0.25466 2.8255,-3.88822 5.8503,-8.07445 5.0903,-7.04468 5.5487,-7.59934 6.1609,-7.45536 0.3638,0.0856 0.7578,0.2493 0.8754,0.36381 0.1824,0.17774 -4.5891,7.0059 -10.5513,15.09985 l -1.6563,2.24896 1.7359,3.30729 c 0.9549,1.81901 1.8106,3.39287 1.9011,3.49746 0.1493,0.17235 1.0657,-0.42835 6.6554,-4.36407 1.4435,-1.01644 5.2731,-2.76158 5.2731,-2.40296 0,0.0572 -1.3714,5.11993 -3.0479,11.25048 -1.6766,6.13055 -3.0084,11.18606 -2.9595,11.23497 0.049,0.0489 0.5788,-1.00993 1.1772,-2.35334 0.5985,-1.34341 1.565,-3.45479 2.1482,-4.69171 0.5831,-1.23693 2.6637,-5.70176 4.623,-9.92187 l 3.562,-7.67292 2.4743,-0.98288 c 1.3608,-0.54073 4.6706,-1.82051 7.3551,-2.84376 2.6844,-1.02325 4.9571,-1.94978 5.0509,-2.0593 0.094,-0.10951 0.4285,-1.03879 0.7436,-2.06448 l 0.5726,-1.86448 0.9244,0.10748 c 0.5005,0.0584 0.9113,0.13728 0.924,0.1757 l 5e-4,5.2e-4 v 5.2e-4 c 0,0.28086 -13.0575,38.98772 -13.7309,40.70294 -0.3616,0.92118 -0.3646,1.05098 -0.022,0.83871 0.149,-0.0921 3.9887,-2.87469 8.5328,-6.18309 h 5e-4 c 6.153,-4.47986 16.7532,-12.11342 17.8434,-12.84986 0.058,-0.0389 -0.2771,-1.33794 -3.6107,-14.01258 -1.03,-3.91616 -1.8141,-7.17911 -1.7425,-7.25072 0.1313,-0.13129 1.7592,0.0775 7.8047,1.00097 1.816,0.2774 3.33,0.47605 3.3647,0.44132 0.065,-0.0653 -2.2547,-0.91149 -7.7252,-2.81792 -1.7463,-0.60855 -3.5321,-1.25664 -3.9687,-1.44022 -0.4365,-0.18359 -1.4783,-0.53526 -2.3151,-0.78135 -0.8302,-0.24416 -1.5103,-0.49152 -1.5208,-0.5519 -1e-4,-2.3e-4 0,-8.1e-4 0,-0.001 v -5.2e-4 -5.2e-4 c 0.01,-0.0604 0.6408,-0.30649 1.4112,-0.54932 l 1.4118,-0.44493 -2.6964,-7.12618 -2.696,-7.1267 1.3973,-5.54798 c 1.2675,-5.0316 1.3687,-5.64397 1.0863,-6.58151 l -0.3116,-1.03405 -3.175,2.1115 c -1.7462,1.16124 -3.4936,2.28413 -3.883,2.49494 l -0.7075,0.38292 0.4775,-1.65003 c 0.863,-2.98219 3.4033,-11.63541 4.4824,-15.2678 0.5823,-1.95984 1.0285,-3.59397 0.9912,-3.6313 z"
       id="path3" /><path
       style="fill:#cefe1b;fill-opacity:1"
       d="m 72.877,21.17512 c 0.04,0.10771 -0.4556,1.91263 -1.1022,4.01061 -4.0647,13.18876 -7.5952,24.91076 -7.5226,24.97573 0.047,0.0417 3.2994,1.23003 7.2285,2.64119 10.6078,3.8099 12.7974,4.64829 11.7735,4.50515 -0.5093,-0.0712 -4.3784,-0.6086 -8.5985,-1.19373 -4.2201,-0.58512 -8.4701,-1.18047 -9.4438,-1.32291 -0.9738,-0.14244 -1.9403,-0.2589 -2.1482,-0.2589 -0.229,0 -1.0299,1.43376 -2.0319,3.63802 -7.0355,15.47658 -11.2002,24.56027 -11.3125,24.67239 -0.014,0.0142 -0.026,0.0184 -0.034,0.0145 -0.031,-0.0188 -0.011,-0.17942 0.058,-0.41134 0.086,-0.29104 1.8289,-6.83948 3.8731,-14.55208 2.0443,-7.7126 3.7792,-14.22053 3.8556,-14.46217 0.1154,-0.36547 -0.7859,-0.73637 -5.3614,-2.20607 -3.0253,-0.97173 -6.9297,-2.22594 -8.676,-2.78691 -1.7462,-0.56097 -3.8893,-1.26226 -4.7625,-1.55856 l -1.5875,-0.53847 1.1911,0.13023 c 12.3697,1.35397 20.9789,2.24897 21.0329,2.18643 0.037,-0.0433 1.5137,-3.05563 3.2804,-6.69365 8.2901,-17.07135 10.22,-20.97122 10.2882,-20.78943 z"
       id="path2" /><path
       style="fill:#cefe1b;fill-opacity:1"
       d="m 8.9063,3.11111 c -0.4945,-0.35124 0.366,0.62514 4.394,4.98677 5.9634,6.45722 12.9425,14.28085 22.3041,25.00313 10.542,12.07412 11.1396,12.73023 11.436,12.54703 0.1169,-0.0723 1.9949,-2.1645 4.1734,-4.64932 l 3.961,-4.51807 -13.2783,-9.70122 C 27.2532,16.08071 21.844,12.18275 14.3307,6.91656 11.5658,4.9786 9.1246,3.26616 8.9063,3.11111 Z"
       id="path1" /></g></svg>
